# xmcd CD database file
#
# Track frame offsets:
#	150
#	14619
#	28572
#	44330
#	57150
#	69095
#	86831
#	97095
#	110628
#	121259
#	133286
#	144988
#	162336
#	179311
#	193088
#	205910
#	224711
#	237959
#	257756
#	271492
#	290037
#	302278
#	316173
#	333470
#
# Disc length: 4583 seconds
#
# Revision: 0
# Processed by: cddbd v1.5.1PL2 Copyright (c) Steve Scherf et al.
# Submitted via: CDex 1.51
#
DISCID=6f11e518
DTITLE=CAIPIRA COUNTRY - PORTA DE BOTECO
DYEAR=1900
DGENRE=Country
TTITLE0=Tem nada haver
TTITLE1=Meiga Senhorita
TTITLE2=Eu não te esqueci
TTITLE3=Querendo te amar
TTITLE4=Com todos menos comigo
TTITLE5=Antes de perder você
TTITLE6=Do Brasil ao Japão
TTITLE7=Amante anonimo
TTITLE8=Chifre
TTITLE9=Como eu te quero
TTITLE10=Espuma de cerveja
TTITLE11=Blusa amarela
TTITLE12=Hoje eu sei
TTITLE13=Não vivo sem você
TTITLE14=Você decide
TTITLE15=Pago calado
TTITLE16=Mercedita
TTITLE17=Muda de vida
TTITLE18=Recortado paulista
TTITLE19=Estrada da vida
TTITLE20=Bebum
TTITLE21=Ego
TTITLE22=Dou a vida por um beijo
TTITLE23=Valeu a pena esperar
EXTD=
EXTT0=
EXTT1=
EXTT2=
EXTT3=
EXTT4=
EXTT5=
EXTT6=
EXTT7=
EXTT8=
EXTT9=
EXTT10=
EXTT11=
EXTT12=
EXTT13=
EXTT14=
EXTT15=
EXTT16=
EXTT17=
EXTT18=
EXTT19=
EXTT20=
EXTT21=
EXTT22=
EXTT23=
PLAYORDER=
